<?xml version="1.0" encoding="iso-8859-1"?>
<!-- Generator: Adobe Illustrator 18.1.1, SVG Export Plug-In . SVG Version: 6.00 Build 0)  -->
<svg version="1.1" id="Capa_1" xmlns="http://www.w3.org/2000/svg" xmlns:xlink="http://www.w3.org/1999/xlink" x="0px" y="0px"
	 viewBox="0 0 15.848 15.848" style="enable-background:new 0 0 15.848 15.848;" xml:space="preserve">
<g>
	<path style="fill:#030104;" d="M15.135,2.469c-0.652-0.858-1.694-1.352-3.183-1.511c-0.119-0.013-0.243-0.02-0.371-0.02
		c-1.32,0-2.819,0.655-3.658,1.892C7.085,1.593,5.586,0.938,4.267,0.938c-0.128,0-0.252,0.007-0.371,0.02
		c-1.488,0.159-2.529,0.653-3.182,1.51c-0.647,0.85-0.856,2.016-0.62,3.467c0.349,2.126,3.19,4.799,5.473,6.947
		c0.661,0.62,1.251,1.176,1.636,1.59c0,0,0.39,0.438,0.754,0.438c0.364,0,0.742-0.443,0.742-0.443
		c0.383-0.415,0.972-0.973,1.631-1.598c2.262-2.145,5.077-4.813,5.424-6.935C15.99,4.485,15.782,3.319,15.135,2.469z M14.562,5.74
		c-0.281,1.721-3.159,4.45-5.063,6.253c-0.62,0.589-1.152,1.093-1.55,1.511c-0.399-0.415-0.933-0.917-1.554-1.502
		c-1.922-1.809-4.826-4.54-5.108-6.262C1.106,4.63,1.237,3.776,1.676,3.2c0.441-0.579,1.21-0.919,2.351-1.042
		C4.103,2.15,4.184,2.146,4.268,2.146c1.02,0,2.752,0.642,3.062,2.363c0.052,0.287,0.302,0.496,0.594,0.496s0.543-0.209,0.594-0.496
		c0.309-1.721,2.042-2.363,3.063-2.363c0.084,0,0.165,0.004,0.243,0.013c1.141,0.122,1.909,0.462,2.352,1.042
		C14.613,3.775,14.743,4.63,14.562,5.74z"/>
</g>
<g>
</g>
<g>
</g>
<g>
</g>
<g>
</g>
<g>
</g>
<g>
</g>
<g>
</g>
<g>
</g>
<g>
</g>
<g>
</g>
<g>
</g>
<g>
</g>
<g>
</g>
<g>
</g>
<g>
</g>
</svg>
